<?xml version="1.0" encoding="UTF-8"?>
<svg width="512" height="512" version="1.1" viewBox="0 0 512 512" xmlns="http://www.w3.org/2000/svg" xmlns:cc="http://creativecommons.org/ns#" xmlns:dc="http://purl.org/dc/elements/1.1/" xmlns:rdf="http://www.w3.org/1999/02/22-rdf-syntax-ns#">
 <metadata>
  <rdf:RDF>
   <cc:Work rdf:about="">
    <dc:format>image/svg+xml</dc:format>
    <dc:type rdf:resource="http://purl.org/dc/dcmitype/StillImage"/>
    <dc:title/>
   </cc:Work>
  </rdf:RDF>
 </metadata>
 <g transform="translate(0 -1106.5)">
  <rect x="-41.416" y="1087.3" width="611.14" height="584.88" fill="#fff" stroke-width="6"/>
  <rect x="114.38" y="1273.5" width="281.53" height="189.06" fill="#fff"/>
  <path d="m390.75 1454c0 2.5583-2.2559 4.8125-4.8125 4.8125h-259.88c-2.5567 0-4.8125-2.2542-4.8125-4.8125v-168.44h269.5zm19.25-182.88c0-13.234-10.828-24.062-24.062-24.062h-259.88c-13.234 0-24.063 10.828-24.063 24.062v182.88c0 13.234 10.828 24.062 24.063 24.062h259.88c13.234 0 24.062-10.828 24.062-24.062z" fill="#1a1a1a"/>
  <path d="m371.5 1405.8c0-2.7046-2.1054-4.8106-4.8125-4.8106h-105.87c-2.7071 0-4.8125 2.1117-4.8125 4.8106v9.6288c0 2.7047 2.1055 4.8106 4.8125 4.8106h105.87c2.707 0 4.8125-2.1117 4.8125-4.8106zm-57.75-38.5c0-2.7046-2.1054-4.8106-4.8125-4.8106h-48.125c-2.7071 0-4.8125 2.1117-4.8125 4.8106v9.625c0 2.7085 2.1055 4.8144 4.8125 4.8144h48.125c2.707 0 4.8125-2.1117 4.8125-4.8144zm57.75 0c0-2.7046-2.1054-4.8106-4.8125-4.8106h-28.875c-2.707 0-4.8125 2.1117-4.8125 4.8106v9.625c0 2.7085 2.1054 4.8144 4.8125 4.8144h28.875c2.707 0 4.8125-2.1117 4.8125-4.8144zm0-38.496c0-2.7104-2.1054-4.8144-4.8125-4.8144h-105.87c-2.7071 0-4.8125 2.1117-4.8125 4.8144v9.6212c0 2.7104 2.1055 4.8144 4.8125 4.8144h105.87c2.707 0 4.8125-2.1117 4.8125-4.8144z" fill="#666"/>
  <path d="m236.75 1410c0-19.852-4.8125-42.714-24.664-42.714-6.0156 6.0175-14.287 9.625-23.461 9.625-9.1739 0-17.445-3.6075-23.461-9.625-19.852 0-24.664 22.861-24.664 42.714 0 10.978 7.2188 19.851 16.092 19.851h64.066c8.873 0 16.092-8.8723 16.092-19.851zm-19.25-66.774c0-15.941-12.934-28.875-28.875-28.875-15.941 0-28.875 12.934-28.875 28.875s12.934 28.875 28.875 28.875c15.941 0 28.875-12.934 28.875-28.875z" fill="#800000"/>
 </g>
</svg>
