<?xml version="1.0" encoding="UTF-8" standalone="no"?>
<!-- Created with Inkscape (http://www.inkscape.org/) -->

<svg
   xmlns:dc="http://purl.org/dc/elements/1.1/"
   xmlns:cc="http://creativecommons.org/ns#"
   xmlns:rdf="http://www.w3.org/1999/02/22-rdf-syntax-ns#"
   xmlns:svg="http://www.w3.org/2000/svg"
   xmlns="http://www.w3.org/2000/svg"
   xmlns:sodipodi="http://sodipodi.sourceforge.net/DTD/sodipodi-0.dtd"
   xmlns:inkscape="http://www.inkscape.org/namespaces/inkscape"
   width="16"
   height="16"
   viewBox="0 0 16 16.000001"
   version="1.1"
   id="svg8"
   inkscape:version="0.92.3 (2405546, 2018-03-11)"
   sodipodi:docname="favicon.svg">
  <defs
     id="defs2" />
  <sodipodi:namedview
     id="base"
     pagecolor="#ffffff"
     bordercolor="#666666"
     borderopacity="1.0"
     inkscape:pageopacity="0.0"
     inkscape:pageshadow="2"
     inkscape:zoom="22.4"
     inkscape:cx="9.102073"
     inkscape:cy="10.65175"
     inkscape:document-units="px"
     inkscape:current-layer="layer1"
     showgrid="false"
     inkscape:window-width="1366"
     inkscape:window-height="705"
     inkscape:window-x="-8"
     inkscape:window-y="-8"
     inkscape:window-maximized="1"
     units="px" />
  <metadata
     id="metadata5">
    <rdf:RDF>
      <cc:Work
         rdf:about="">
        <dc:format>image/svg+xml</dc:format>
        <dc:type
           rdf:resource="http://purl.org/dc/dcmitype/StillImage" />
        <dc:title></dc:title>
      </cc:Work>
    </rdf:RDF>
  </metadata>
  <g
     inkscape:label="Layer 1"
     inkscape:groupmode="layer"
     id="layer1"
     transform="translate(0,-1106.5196)">
    <rect
       style="opacity:1;fill:#ffffff;fill-opacity:1;stroke:none;stroke-width:1.62427115;stroke-miterlimit:4;stroke-dasharray:none;stroke-opacity:1"
       id="rect827"
       width="14.625002"
       height="9.8214293"
       x="0.64285713"
       y="1109.8947" />
    <path
       inkscape:connector-curvature="0"
       id="path823"
       style="font-style:normal;font-weight:normal;font-size:medium;line-height:1.25;font-family:sans-serif;letter-spacing:0px;word-spacing:0px;fill:#1a1a1a;fill-opacity:1;stroke:none;stroke-width:0.35000005"
       d="m 15.000001,1119.2696 c 0,0.1329 -0.117188,0.25 -0.249998,0.25 H 1.2500013 c -0.1328146,0 -0.2500012,-0.1171 -0.2500012,-0.25 v -8.75 H 15.000001 Z M 16,1109.7696 c 0,-0.6875 -0.5625,-1.25 -1.249997,-1.25 H 1.2500013 C 0.5625001,1108.5196 0,1109.0821 0,1109.7696 v 9.5 c 0,0.6875 0.5625001,1.25 1.2500013,1.25 H 14.750003 c 0.687497,0 1.249997,-0.5625 1.249997,-1.25 z"
       sodipodi:nodetypes="ssssccssssssssss" />
    <path
       inkscape:connector-curvature="0"
       id="path823-0"
       style="font-style:normal;font-weight:normal;font-size:medium;line-height:1.25;font-family:sans-serif;letter-spacing:0px;word-spacing:0px;fill:#666666;fill-opacity:1;stroke:none;stroke-width:0.35000005"
       d="m 14.000003,1116.7695 c 0,-0.1405 -0.109371,-0.2499 -0.250002,-0.2499 H 8.2500022 c -0.140627,0 -0.250002,0.1097 -0.250002,0.2499 v 0.5002 c 0,0.1405 0.109375,0.2499 0.250002,0.2499 h 5.4999988 c 0.140626,0 0.250002,-0.1097 0.250002,-0.2499 z m -3.000001,-2 c 0,-0.1405 -0.109373,-0.2499 -0.250002,-0.2499 H 8.2500022 c -0.140627,0 -0.250002,0.1097 -0.250002,0.2499 v 0.5 c 0,0.1407 0.109375,0.2501 0.250002,0.2501 H 10.75 c 0.140626,0 0.250002,-0.1097 0.250002,-0.2501 z m 3.000001,0 c 0,-0.1405 -0.109371,-0.2499 -0.250002,-0.2499 h -1.499999 c -0.140626,0 -0.250001,0.1097 -0.250001,0.2499 v 0.5 c 0,0.1407 0.109371,0.2501 0.250001,0.2501 h 1.499999 c 0.140626,0 0.250002,-0.1097 0.250002,-0.2501 z m 0,-1.9998 c 0,-0.1408 -0.109371,-0.2501 -0.250002,-0.2501 H 8.2500022 c -0.140627,0 -0.250002,0.1097 -0.250002,0.2501 v 0.4998 c 0,0.1408 0.109375,0.2501 0.250002,0.2501 h 5.4999988 c 0.140626,0 0.250002,-0.1097 0.250002,-0.2501 z"
       sodipodi:nodetypes="ssssssssssssssssssssssssssssssssssss" />
    <path
       inkscape:connector-curvature="0"
       id="path823-0-2"
       style="font-style:normal;font-weight:normal;font-size:medium;line-height:1.25;font-family:sans-serif;letter-spacing:0px;word-spacing:0px;fill:#800000;fill-opacity:1;stroke:none;stroke-width:0.35000005"
       d="m 7.0000012,1116.9884 c 0,-1.0313 -0.250002,-2.2189 -1.281252,-2.2189 -0.312498,0.3126 -0.742186,0.5 -1.218749,0.5 -0.476564,0 -0.906248,-0.1874 -1.218749,-0.5 -1.031251,0 -1.281252,1.1876 -1.281252,2.2189 0,0.5703 0.375,1.0312 0.83594,1.0312 h 3.328125 c 0.460936,0 0.835937,-0.4609 0.835937,-1.0312 z m -0.999999,-3.4688 c 0,-0.8281 -0.671878,-1.5 -1.500002,-1.5 -0.828125,0 -1.499999,0.6719 -1.499999,1.5 0,0.8281 0.671874,1.5 1.499999,1.5 0.828124,0 1.500002,-0.6719 1.500002,-1.5 z"
       sodipodi:nodetypes="scscsssssssss" />
  </g>
</svg>
